<svg xmlns="http://www.w3.org/2000/svg" width="25" height="24" fill="none" viewBox="0 0 25 24">
  <path fill="#F2F7FC" d="M4.5 21c-.55 0-1.021-.196-1.413-.588A1.922 1.922 0 0 1 2.5 19V8c0-.55.196-1.021.588-1.413A1.922 1.922 0 0 1 4.5 6h4V4c0-.55.196-1.021.588-1.413A1.922 1.922 0 0 1 10.5 2h4c.55 0 1.021.196 1.413.588.392.392.588.863.587 1.412v2h4c.55 0 1.021.196 1.413.588.392.392.588.863.587 1.412v11c0 .55-.196 1.021-.588 1.413A1.922 1.922 0 0 1 20.5 21h-16Zm0-2h16V8h-16v11Zm6-13h4V4h-4v2Z"/>
</svg>
