<svg xmlns="http://www.w3.org/2000/svg" width="132" height="34" fill="none" viewBox="0 0 132 34">
  <path fill="#000" d="M24.912 17.648c.208 0 .368.096.48.288.128.192.192.456.192.792 0 .624-.152 1.12-.456 1.488-.768.928-1.544 1.648-2.328 2.16-.784.496-1.712.744-2.784.744-1.184 0-2.152-.344-2.904-1.032-.752-.704-1.456-1.792-2.112-3.264-.48-1.056-.88-1.84-1.2-2.352-.304-.528-.608-.896-.912-1.104-.304-.224-.688-.36-1.152-.408l-.264 1.776c-.336 2.288-.992 3.936-1.968 4.944-.96 1.008-2.288 1.512-3.984 1.512-1.104 0-2.088-.264-2.952-.792-.848-.544-1.44-1.232-1.776-2.064a2.56 2.56 0 0 1-.168-.936c0-.48.112-.896.336-1.248.224-.352.512-.528.864-.528.208 0 .384.056.528.168.144.096.28.272.408.528.496.928.928 1.576 1.296 1.944.384.368.856.552 1.416.552.64 0 1.184-.288 1.632-.864.464-.592.792-1.496.984-2.712l.336-2.28H8.04c-.368 0-.656-.104-.864-.312-.208-.208-.312-.496-.312-.864 0-.416.104-.744.312-.984.224-.256.496-.384.816-.384h.792c.112-.784.192-1.328.24-1.632l.744-5.4a10.286 10.286 0 0 0-1.176-.072c-1.36 0-2.392.24-3.096.72-.704.464-1.056 1.136-1.056 2.016 0 .4.04.728.12.984.096.24.216.512.36.816a.953.953 0 0 1 .096.432c0 .352-.168.664-.504.936-.32.256-.68.384-1.08.384-.512 0-.888-.224-1.128-.672a5.464 5.464 0 0 1-.72-2.736c0-1.008.272-1.928.816-2.76.56-.832 1.4-1.496 2.52-1.992 1.12-.512 2.504-.768 4.152-.768.72 0 1.376.04 1.968.12.608.08 1.272.232 1.992.456.784.24 1.176.688 1.176 1.344 0 .88-.376 1.32-1.128 1.32l-.936 6.456c1.872-.192 3.392-.992 4.56-2.4 1.184-1.424 2.168-3.352 2.952-5.784.144-.448.384-.792.72-1.032.352-.24.792-.36 1.32-.36.448 0 .792.104 1.032.312.256.192.384.472.384.84 0 .112-.032.296-.096.552-.8 2.64-1.944 4.736-3.432 6.288-1.488 1.552-3.112 2.584-4.872 3.096.608.144 1.104.36 1.488.648.4.288.736.648 1.008 1.08.272.416.584 1 .936 1.752.496 1.056.96 1.808 1.392 2.256.432.432.936.648 1.512.648.512 0 1-.168 1.464-.504.464-.352 1.048-.944 1.752-1.776.192-.224.408-.336.648-.336Zm11.005.048c.208 0 .368.104.48.312.128.192.192.44.192.744 0 .368-.056.656-.168.864a1.567 1.567 0 0 1-.528.552l-4.608 3.096c-.608 3.312-1.408 5.912-2.4 7.8-.976 1.904-2.224 2.856-3.744 2.856-.816 0-1.48-.256-1.992-.768-.512-.496-.768-1.152-.768-1.968 0-.752.168-1.52.504-2.304.352-.784.992-1.688 1.92-2.712.944-1.008 2.272-2.168 3.984-3.48l.072-.552c.112-.592.24-1.44.384-2.544-.32 1.152-.768 2.032-1.344 2.64-.576.592-1.184.888-1.824.888-.72 0-1.312-.328-1.776-.984-.448-.672-.672-1.504-.672-2.496 0-1.2.08-2.296.24-3.288.16-1.008.424-2.072.792-3.192.16-.48.384-.824.672-1.032.288-.208.744-.312 1.368-.312.352 0 .592.056.72.168.144.112.216.28.216.504 0 .128-.088.56-.264 1.296a25.07 25.07 0 0 0-.384 1.608c-.128.656-.24 1.288-.336 1.896a9.493 9.493 0 0 0-.144 1.464c0 .608.168.912.504.912.24 0 .536-.24.888-.72.368-.48.752-1.208 1.152-2.184.416-.976.816-2.176 1.2-3.6.128-.48.32-.824.576-1.032.272-.208.672-.312 1.2-.312.368 0 .624.048.768.144.144.096.216.256.216.48 0 .4-.208 1.776-.624 4.128l-.624 3.864a69.08 69.08 0 0 1 3.6-2.544c.208-.128.392-.192.552-.192ZM25.405 31.592c.4 0 .848-.464 1.344-1.392.496-.928.992-2.472 1.488-4.632-1.232 1.04-2.128 1.984-2.688 2.832-.544.864-.816 1.616-.816 2.256 0 .272.048.496.144.672.112.176.288.264.528.264Zm18.804-13.944c.208 0 .368.096.48.288.128.192.192.456.192.792 0 .64-.152 1.136-.456 1.488-.688.848-1.44 1.544-2.256 2.088-.8.544-1.712.816-2.736.816-1.408 0-2.456-.64-3.144-1.92-.672-1.28-1.008-2.936-1.008-4.968 0-1.952.248-4.176.744-6.672.512-2.496 1.256-4.64 2.232-6.432C39.249 1.336 40.425.44 41.785.44c.768 0 1.368.36 1.8 1.08.448.704.672 1.72.672 3.048 0 1.904-.528 4.112-1.584 6.624-1.056 2.512-2.488 5-4.296 7.464.112.656.296 1.128.552 1.416.256.272.592.408 1.008.408.656 0 1.232-.184 1.728-.552.496-.384 1.128-1.032 1.896-1.944.192-.224.408-.336.648-.336ZM41.257 2.816c-.368 0-.784.664-1.248 1.992-.464 1.328-.872 2.976-1.224 4.944a35.79 35.79 0 0 0-.576 5.664c1.136-1.872 2.04-3.744 2.712-5.616.672-1.888 1.008-3.608 1.008-5.16 0-1.216-.224-1.824-.672-1.824Zm10.276 15.552c.208 0 .368.096.48.288.128.192.192.456.192.792 0 .576-.136 1.072-.408 1.488a4.649 4.649 0 0 1-1.776 1.608c-.72.384-1.584.576-2.592.576-1.536 0-2.728-.456-3.576-1.368-.848-.928-1.272-2.176-1.272-3.744a6.87 6.87 0 0 1 .696-3.072c.464-.96 1.104-1.72 1.92-2.28.832-.56 1.768-.84 2.808-.84.928 0 1.672.28 2.232.84.56.544.84 1.288.84 2.232 0 1.104-.4 2.056-1.2 2.856-.784.784-2.128 1.408-4.032 1.872.384.736 1.032 1.104 1.944 1.104.656 0 1.192-.152 1.608-.456.432-.304.928-.816 1.488-1.536.192-.24.408-.36.648-.36Zm-3.936-4.2c-.592 0-1.096.344-1.512 1.032-.4.688-.6 1.52-.6 2.496v.048c.944-.224 1.688-.56 2.232-1.008.544-.448.816-.968.816-1.56 0-.304-.088-.544-.264-.72-.16-.192-.384-.288-.672-.288Z"/>
  <path fill="url(#a)" d="M77.76 8.696a6.97 6.97 0 0 1-1.056 3.744c-.704 1.136-1.728 2.064-3.072 2.784-1.344.72-2.944 1.144-4.8 1.272L67.8 22.28c-.4 2.224-1.488 3.336-3.264 3.336-.976 0-1.88-.288-2.712-.864-.816-.576-1.472-1.456-1.968-2.64-.496-1.184-.744-2.64-.744-4.368 0-3.248.52-6 1.56-8.256 1.056-2.272 2.464-3.968 4.224-5.088 1.776-1.136 3.728-1.704 5.856-1.704 1.504 0 2.776.264 3.816.792 1.056.528 1.848 1.248 2.376 2.16.544.896.816 1.912.816 3.048Zm-8.496 5.328c3.28-.416 4.92-2.12 4.92-5.112 0-1.056-.352-1.912-1.056-2.568-.688-.672-1.76-1.008-3.216-1.008-1.648 0-3.088.52-4.32 1.56-1.216 1.04-2.16 2.488-2.832 4.344-.656 1.84-.984 3.944-.984 6.312 0 .992.096 1.872.288 2.64.208.768.464 1.368.768 1.8.32.416.624.624.912.624.4 0 .704-.552.912-1.656l.792-4.536c-.624-.096-.896-.136-.816-.12-.48-.08-.792-.224-.936-.432-.144-.224-.216-.504-.216-.84 0-.352.096-.632.288-.84.208-.208.488-.312.84-.312.16 0 .28.008.36.024.384.064.68.104.888.12.208-1.248.504-2.92.888-5.016.096-.544.312-.928.648-1.152.352-.24.76-.36 1.224-.36.528 0 .904.104 1.128.312.24.192.36.504.36.936 0 .256-.016.464-.048.624l-.792 4.656Zm20.253 1.608c.208 0 .368.104.48.312.112.208.168.472.168.792 0 .768-.232 1.224-.696 1.368-.96.336-2.016.528-3.168.576-.304 1.344-.904 2.424-1.8 3.24-.896.8-1.912 1.2-3.048 1.2-.96 0-1.784-.232-2.472-.696a4.453 4.453 0 0 1-1.536-1.848 5.918 5.918 0 0 1-.528-2.496c0-1.216.232-2.296.696-3.24.464-.96 1.104-1.704 1.92-2.232a4.784 4.784 0 0 1 2.712-.816c1.216 0 2.192.424 2.928 1.272.752.832 1.192 1.864 1.32 3.096.752-.048 1.648-.208 2.688-.48a1.41 1.41 0 0 1 .336-.048Zm-7.872 4.944c.512 0 .952-.208 1.32-.624.384-.416.64-1.016.768-1.8a3.406 3.406 0 0 1-1.152-1.32 4.009 4.009 0 0 1-.384-1.728c0-.256.024-.512.072-.768h-.12c-.64 0-1.176.312-1.608.936-.416.608-.624 1.472-.624 2.592 0 .88.168 1.552.504 2.016.352.464.76.696 1.224.696Zm24.599-4.872a.842.842 0 0 1 .24-.024c.24 0 .424.08.552.24.128.16.192.376.192.648 0 .496-.096.888-.288 1.176-.192.272-.48.472-.864.6a7.54 7.54 0 0 1-2.352.36 6.738 6.738 0 0 1-1.992-.288 48.27 48.27 0 0 1-1.536 2.328c-.64.912-1.192 1.536-1.656 1.872-.449.336-.96.504-1.537.504-.64 0-1.127-.248-1.463-.744-.32-.496-.52-1.312-.6-2.448l-.12-1.752c-.496 1.344-.944 2.368-1.344 3.072-.385.704-.776 1.192-1.177 1.464-.384.272-.84.408-1.368.408-.656 0-1.175-.256-1.56-.768-.367-.512-.6-1.32-.695-2.424-.192-2.24-.288-4.2-.288-5.88v-.84c.015-.528.16-.896.431-1.104.272-.208.68-.312 1.224-.312.416 0 .72.096.912.288.209.176.313.48.313.912 0 1.84.111 4.232.335 7.176a84.79 84.79 0 0 0 3-7.152c.177-.48.385-.8.625-.96a1.57 1.57 0 0 1 .912-.264c.431 0 .728.088.888.264.175.176.263.488.263.936 0 1.84.112 4.232.337 7.176.96-1.424 1.68-2.56 2.16-3.408-.24-.464-.36-1.016-.36-1.656 0-.544.12-1.072.36-1.584s.568-.928.984-1.248c.416-.32.888-.48 1.416-.48.464 0 .84.168 1.128.504.288.32.432.792.432 1.416 0 .72-.192 1.544-.576 2.472.608-.032 1.416-.152 2.424-.36l.648-.12Zm9.604 1.944c.208 0 .368.096.48.288.128.192.192.456.192.792 0 .64-.152 1.136-.456 1.488-.592.72-1.432 1.384-2.52 1.992a6.891 6.891 0 0 1-3.456.912c-1.68 0-2.984-.456-3.912-1.368-.928-.912-1.392-2.16-1.392-3.744a6.87 6.87 0 0 1 .696-3.072c.464-.96 1.104-1.72 1.92-2.28.832-.56 1.768-.84 2.808-.84.928 0 1.672.28 2.232.84.56.544.84 1.288.84 2.232 0 1.104-.4 2.056-1.2 2.856-.784.784-2.12 1.408-4.008 1.872.4.736 1.16 1.104 2.28 1.104.72 0 1.536-.248 2.448-.744a8.234 8.234 0 0 0 2.4-1.992c.192-.224.408-.336.648-.336Zm-6.048-3.48c-.592 0-1.096.344-1.512 1.032-.4.688-.6 1.52-.6 2.496v.048c.944-.224 1.688-.56 2.232-1.008.544-.448.816-.968.816-1.56 0-.304-.088-.544-.264-.72-.16-.192-.384-.288-.672-.288Zm13.862 3.48c.208 0 .368.096.48.288.128.192.192.456.192.792 0 .64-.152 1.136-.456 1.488-.688.848-1.44 1.544-2.256 2.088-.8.544-1.712.816-2.736.816-1.408 0-2.456-.64-3.144-1.92-.672-1.28-1.008-2.936-1.008-4.968 0-1.952.248-4.176.744-6.672.512-2.496 1.256-4.64 2.232-6.432.992-1.792 2.168-2.688 3.528-2.688.768 0 1.368.36 1.8 1.08.448.704.672 1.72.672 3.048 0 1.904-.528 4.112-1.584 6.624-1.056 2.512-2.488 5-4.296 7.464.112.656.296 1.128.552 1.416.256.272.592.408 1.008.408.656 0 1.232-.184 1.728-.552.496-.384 1.128-1.032 1.896-1.944.192-.224.408-.336.648-.336ZM120.71 2.816c-.368 0-.784.664-1.248 1.992-.464 1.328-.872 2.976-1.224 4.944a35.79 35.79 0 0 0-.576 5.664c1.136-1.872 2.04-3.744 2.712-5.616.672-1.888 1.008-3.608 1.008-5.16 0-1.216-.224-1.824-.672-1.824Zm8.62 16.8c.176-.16.352-.24.528-.24.192 0 .344.112.456.336.128.208.192.464.192.768 0 .672-.24 1.208-.72 1.608-.832.688-1.776 1.032-2.832 1.032-1.52 0-2.632-.632-3.336-1.896-.704-1.28-1.056-2.944-1.056-4.992 0-1.952.248-4.176.744-6.672.512-2.496 1.256-4.64 2.232-6.432.992-1.792 2.168-2.688 3.528-2.688.768 0 1.368.36 1.8 1.08.448.704.672 1.72.672 3.048 0 1.904-.528 4.112-1.584 6.624-1.04 2.512-2.464 4.992-4.272 7.44.112.656.312 1.128.6 1.416.288.288.68.432 1.176.432.272 0 .576-.08.912-.24a3.81 3.81 0 0 0 .96-.624Zm-.792-16.8c-.368 0-.784.664-1.248 1.992-.464 1.328-.872 2.976-1.224 4.944a35.79 35.79 0 0 0-.576 5.664c1.136-1.872 2.04-3.744 2.712-5.616.672-1.888 1.008-3.608 1.008-5.16 0-1.216-.224-1.824-.672-1.824Z"/>
  <defs>
    <linearGradient id="a" x1="65.5" x2="65.5" y1="-8" y2="34" gradientUnits="userSpaceOnUse">
      <stop stop-color="#FF9C1A"/>
      <stop offset="1" stop-color="#ED250A"/>
    </linearGradient>
  </defs>
</svg>
