<svg xmlns="http://www.w3.org/2000/svg" width="101" height="40" fill="none" viewBox="0 0 101 40">
  <rect width="100" height="39" x=".5" y=".5" stroke="url(#a)" rx="19.5"/>
  <path fill="#000" d="M36 17.484a1.698 1.698 0 0 0-.348-.276 3.084 3.084 0 0 0-.54-.288 4.131 4.131 0 0 0-.672-.216 3.264 3.264 0 0 0-.744-.084c-.56 0-.976.104-1.248.312-.272.208-.408.496-.408.864 0 .272.076.488.228.648.152.152.384.28.696.384.312.104.704.216 1.176.336.576.136 1.076.3 1.5.492.424.184.748.432.972.744.224.312.336.724.336 1.236 0 .432-.08.804-.24 1.116-.16.312-.384.568-.672.768-.288.192-.62.336-.996.432a5.31 5.31 0 0 1-1.212.132 6.173 6.173 0 0 1-2.472-.516 5.514 5.514 0 0 1-1.044-.636l.612-1.152c.104.104.252.22.444.348.2.12.428.236.684.348.264.112.548.208.852.288.312.072.628.108.948.108.536 0 .944-.092 1.224-.276a.924.924 0 0 0 .432-.816c0-.288-.092-.516-.276-.684-.184-.176-.452-.324-.804-.444-.352-.12-.772-.24-1.26-.36a8.79 8.79 0 0 1-1.404-.492c-.376-.184-.66-.416-.852-.696-.184-.288-.276-.652-.276-1.092 0-.56.136-1.032.408-1.416a2.45 2.45 0 0 1 1.104-.876c.472-.2 1-.3 1.584-.3.384 0 .748.044 1.092.132.344.08.664.192.96.336.304.144.58.308.828.492L36 17.484Zm2.056 4.08v-3.84h1.32V21.3c0 .56.1.984.3 1.272.208.28.508.42.9.42.248 0 .488-.052.72-.156.24-.104.456-.256.648-.456.2-.208.36-.456.48-.744v-3.912h1.32v4.788c0 .152.028.26.084.324.056.064.148.1.276.108V24c-.136.024-.248.04-.336.048a2.787 2.787 0 0 1-.252.012.93.93 0 0 1-.6-.192.77.77 0 0 1-.276-.516l-.024-.624c-.28.456-.644.804-1.092 1.044-.448.232-.94.348-1.476.348-.656 0-1.152-.216-1.488-.648-.336-.432-.504-1.068-.504-1.908Zm10.757 2.556a2.59 2.59 0 0 1-1.308-.336 2.588 2.588 0 0 1-.912-.924V24h-1.164v-8.76h1.32v3.672c.248-.4.556-.716.924-.948.376-.232.816-.348 1.32-.348.416 0 .796.088 1.14.264.344.176.636.416.876.72.248.304.436.652.564 1.044.136.392.204.808.204 1.248 0 .44-.076.856-.228 1.248a3.075 3.075 0 0 1-.624 1.032 2.999 2.999 0 0 1-.948.696c-.352.168-.74.252-1.164.252Zm-.348-1.128c.288 0 .552-.056.792-.168.24-.12.448-.276.624-.468s.308-.416.396-.672c.096-.256.144-.52.144-.792 0-.376-.08-.728-.24-1.056a1.971 1.971 0 0 0-.648-.792c-.28-.2-.604-.3-.972-.3-.264 0-.512.064-.744.192-.232.12-.44.284-.624.492-.176.2-.324.424-.444.672v1.656c.048.184.132.352.252.504.12.144.26.272.42.384.16.104.332.188.516.252s.36.096.528.096ZM62.564 24h-1.32v-3.516c0-.584-.096-1.012-.288-1.284-.192-.272-.472-.408-.84-.408s-.712.14-1.032.42a2.19 2.19 0 0 0-.66 1.068V24h-1.32v-3.516c0-.584-.096-1.012-.288-1.284-.192-.272-.468-.408-.828-.408-.368 0-.712.136-1.032.408a2.269 2.269 0 0 0-.672 1.068V24h-1.32v-6.276h1.2v1.26c.248-.44.572-.776.972-1.008.408-.24.872-.36 1.392-.36.52 0 .928.136 1.224.408.304.272.492.612.564 1.02.272-.464.604-.816.996-1.056.4-.248.856-.372 1.368-.372.368 0 .676.068.924.204.248.136.44.324.576.564.136.232.232.504.288.816.064.304.096.628.096.972V24Zm1.521 0v-6.276h1.32V24h-1.32Zm0-7.308V15.24h1.32v1.452h-1.32Zm6.398 6.984a4.697 4.697 0 0 1-.42.18 4.16 4.16 0 0 1-.576.168 2.873 2.873 0 0 1-.648.072c-.272 0-.524-.048-.756-.144a1.258 1.258 0 0 1-.564-.456c-.136-.216-.204-.492-.204-.828v-3.924h-.828v-1.02h.828V15.66h1.32v2.064h1.368v1.02h-1.368v3.504c.016.216.084.376.204.48a.718.718 0 0 0 .468.156c.184 0 .36-.032.528-.096.168-.064.292-.116.372-.156l.276 1.044Z"/>
  <defs>
    <linearGradient id="a" x1="50.5" x2="50.5" y1="0" y2="40" gradientUnits="userSpaceOnUse">
      <stop stop-color="#FD8A18"/>
      <stop offset="1" stop-color="#EE2C0B"/>
    </linearGradient>
  </defs>
</svg>
