<svg xmlns="http://www.w3.org/2000/svg" width="185" height="44" fill="none" viewBox="0 0 185 44">
  <rect width="185" height="44" fill="url(#a)" rx="20"/>
  <path fill="#F2F7FC" d="m32 26-5-5 1.4-1.45 2.6 2.6V14h2v8.15l2.6-2.6L37 21l-5 5Zm-6 4c-.55 0-1.021-.196-1.413-.588A1.922 1.922 0 0 1 24 28v-3h2v3h12v-3h2v3c0 .55-.196 1.021-.588 1.413A1.922 1.922 0 0 1 38 30H26Zm28.96-4v-8.52h3.024c.92 0 1.688.192 2.304.576a3.512 3.512 0 0 1 1.38 1.536c.312.64.468 1.352.468 2.136 0 .864-.172 1.616-.516 2.256a3.586 3.586 0 0 1-1.44 1.488c-.624.352-1.356.528-2.196.528H54.96Zm5.808-4.272c0-.6-.112-1.128-.336-1.584a2.448 2.448 0 0 0-.948-1.08c-.408-.264-.908-.396-1.5-.396h-1.68v6.144h1.68c.6 0 1.104-.136 1.512-.408.416-.272.732-.64.948-1.104.216-.464.324-.988.324-1.572Zm5.434 4.392c-.496 0-.94-.084-1.332-.252a3.188 3.188 0 0 1-1.02-.72 3.308 3.308 0 0 1-.648-1.032 3.421 3.421 0 0 1-.228-1.248c0-.44.076-.856.228-1.248.152-.392.368-.736.648-1.032.288-.304.628-.54 1.02-.708.4-.176.844-.264 1.332-.264.488 0 .928.088 1.32.264.4.168.74.404 1.02.708.288.296.508.64.66 1.032.152.392.228.808.228 1.248 0 .44-.076.856-.228 1.248a3.202 3.202 0 0 1-.66 1.032c-.28.304-.62.544-1.02.72a3.32 3.32 0 0 1-1.32.252Zm-1.872-3.24c0 .4.084.76.252 1.08.168.32.392.572.672.756.28.184.596.276.948.276.344 0 .656-.092.936-.276a2.05 2.05 0 0 0 .684-.768c.168-.328.252-.688.252-1.08 0-.4-.084-.76-.252-1.08a1.956 1.956 0 0 0-.684-.756 1.618 1.618 0 0 0-.936-.288c-.352 0-.668.096-.948.288a2.09 2.09 0 0 0-.672.768 2.243 2.243 0 0 0-.252 1.08Zm13.884-3.156h1.26L76.834 26h-1.128l-1.128-2.832L73.45 26h-1.128l-2.652-6.276h1.26l2.016 4.992.888-2.316-1.08-2.664h1.116l.708 1.956.696-1.956h1.116L75.322 22.4l.888 2.316 2.004-4.992ZM85.979 26h-1.32v-3.516c0-.584-.096-1.012-.288-1.284-.184-.272-.46-.408-.828-.408-.256 0-.512.064-.768.192a2.334 2.334 0 0 0-.672.528c-.2.216-.344.468-.432.756V26h-1.32v-6.276h1.2v1.26c.16-.28.368-.52.624-.72.264-.208.56-.368.888-.48a3.209 3.209 0 0 1 1.044-.168c.376 0 .684.068.924.204.248.136.44.324.576.564.144.232.24.504.288.816.056.304.084.628.084.972V26Zm1.544-8.76h1.32v6.948c0 .32.048.524.144.612a.513.513 0 0 0 .36.132c.16 0 .308-.016.444-.048a1.85 1.85 0 0 0 .372-.12l.192 1.044c-.192.08-.42.148-.684.204-.264.056-.5.084-.708.084-.448 0-.8-.124-1.056-.372-.256-.256-.384-.608-.384-1.056V17.24Zm6.417 8.88c-.496 0-.94-.084-1.332-.252a3.188 3.188 0 0 1-1.02-.72 3.308 3.308 0 0 1-.648-1.032 3.421 3.421 0 0 1-.228-1.248c0-.44.076-.856.228-1.248.152-.392.368-.736.648-1.032.288-.304.628-.54 1.02-.708.4-.176.844-.264 1.332-.264.488 0 .928.088 1.32.264.4.168.74.404 1.02.708.288.296.508.64.66 1.032.152.392.228.808.228 1.248 0 .44-.076.856-.228 1.248a3.202 3.202 0 0 1-.66 1.032c-.28.304-.62.544-1.02.72a3.32 3.32 0 0 1-1.32.252Zm-1.872-3.24c0 .4.084.76.252 1.08.168.32.392.572.672.756.28.184.596.276.948.276.344 0 .656-.092.936-.276a2.05 2.05 0 0 0 .684-.768c.168-.328.252-.688.252-1.08 0-.4-.084-.76-.252-1.08a1.956 1.956 0 0 0-.684-.756 1.618 1.618 0 0 0-.936-.288c-.352 0-.668.096-.948.288a2.09 2.09 0 0 0-.672.768 2.243 2.243 0 0 0-.252 1.08Zm5.815 1.284c0-.4.112-.748.336-1.044.232-.304.548-.536.948-.696.4-.168.864-.252 1.392-.252.28 0 .564.02.852.06.296.04.556.104.78.192v-.396c0-.44-.132-.784-.396-1.032s-.644-.372-1.14-.372c-.352 0-.684.064-.996.192-.312.12-.644.292-.996.516l-.444-.888c.416-.28.832-.488 1.248-.624a4.335 4.335 0 0 1 1.332-.204c.84 0 1.5.224 1.98.672.488.44.732 1.068.732 1.884v2.34c0 .152.024.26.072.324.056.064.148.1.276.108V26a2.897 2.897 0 0 1-.564.06c-.28 0-.492-.068-.636-.204a.786.786 0 0 1-.252-.48l-.036-.36c-.272.352-.62.624-1.044.816a3.087 3.087 0 0 1-1.284.288c-.416 0-.788-.084-1.116-.252a1.991 1.991 0 0 1-.768-.708 1.848 1.848 0 0 1-.276-.996Zm3.996.384c.096-.104.172-.208.228-.312a.598.598 0 0 0 .084-.276v-.72a3.42 3.42 0 0 0-.708-.192 3.846 3.846 0 0 0-.732-.072c-.48 0-.872.096-1.176.288-.296.192-.444.456-.444.792 0 .184.048.36.144.528.104.168.248.304.432.408.192.104.428.156.708.156.288 0 .564-.056.828-.168.264-.112.476-.256.636-.432Zm2.837-1.68c0-.6.12-1.144.36-1.632a3.022 3.022 0 0 1 1.008-1.176 2.494 2.494 0 0 1 1.464-.444c.48 0 .912.124 1.296.372.392.248.696.556.912.924V17.24h1.32v7.272c0 .152.028.26.084.324.056.064.148.1.276.108V26c-.248.04-.44.06-.576.06a.972.972 0 0 1-.636-.216.698.698 0 0 1-.264-.516l-.012-.468c-.24.4-.564.712-.972.936a2.684 2.684 0 0 1-1.272.324c-.432 0-.832-.084-1.2-.252a2.917 2.917 0 0 1-.948-.708 3.516 3.516 0 0 1-.624-1.044 3.59 3.59 0 0 1-.216-1.248Zm5.04.876V22.1a1.774 1.774 0 0 0-.432-.684 2.19 2.19 0 0 0-.66-.492c-.24-.12-.48-.18-.72-.18-.28 0-.536.06-.768.18-.224.12-.42.28-.588.48-.16.2-.284.428-.372.684a2.456 2.456 0 0 0 .012 1.62c.096.248.232.472.408.672.184.192.392.344.624.456.24.104.5.156.78.156.176 0 .352-.032.528-.096.184-.064.356-.152.516-.264.168-.112.308-.244.42-.396.12-.152.204-.316.252-.492ZM118.851 26v-8.52h3.708c.384 0 .736.08 1.056.24.32.16.596.372.828.636.24.264.424.56.552.888.136.328.204.664.204 1.008 0 .376-.068.736-.204 1.08-.136.344-.332.64-.588.888a2.21 2.21 0 0 1-.876.54l2.004 3.24h-1.512l-1.848-2.964h-1.98V26h-1.344Zm1.344-4.152h2.352c.248 0 .468-.072.66-.216.192-.144.344-.336.456-.576a1.93 1.93 0 0 0 .168-.804c0-.296-.064-.56-.192-.792a1.605 1.605 0 0 0-.504-.576c-.2-.144-.42-.216-.66-.216h-2.28v3.18Zm9.066 4.272c-.488 0-.932-.084-1.332-.252a3.284 3.284 0 0 1-1.02-.708 3.378 3.378 0 0 1-.672-1.032 3.421 3.421 0 0 1-.228-1.248c0-.592.136-1.132.408-1.62a3.125 3.125 0 0 1 1.14-1.188c.488-.304 1.06-.456 1.716-.456.656 0 1.22.152 1.692.456.48.296.852.688 1.116 1.176a3.253 3.253 0 0 1 .36 2.052h-5.028c.024.368.124.692.3.972.184.272.416.488.696.648.28.152.58.228.9.228.352 0 .684-.088.996-.264.32-.176.536-.408.648-.696l1.128.324c-.136.304-.344.58-.624.828-.272.24-.596.432-.972.576a3.573 3.573 0 0 1-1.224.204Zm-1.884-3.696h3.792a1.882 1.882 0 0 0-.312-.948 1.83 1.83 0 0 0-.684-.648 1.765 1.765 0 0 0-.912-.24 1.859 1.859 0 0 0-1.584.888 1.953 1.953 0 0 0-.3.948Zm8.409 3.696a4.44 4.44 0 0 1-1.5-.252 3.262 3.262 0 0 1-1.212-.78l.492-.888c.36.32.72.552 1.08.696a2.98 2.98 0 0 0 1.092.216c.368 0 .668-.068.9-.204a.692.692 0 0 0 .348-.624c0-.2-.06-.348-.18-.444a1.624 1.624 0 0 0-.528-.252 20.397 20.397 0 0 0-.816-.24 8.317 8.317 0 0 1-1.128-.42c-.304-.152-.532-.336-.684-.552-.152-.216-.228-.492-.228-.828 0-.408.104-.756.312-1.044.208-.288.496-.508.864-.66a3.437 3.437 0 0 1 1.296-.228c.456 0 .876.072 1.26.216.392.136.736.352 1.032.648l-.564.876a2.911 2.911 0 0 0-.864-.564 2.41 2.41 0 0 0-.936-.18c-.192 0-.376.024-.552.072a.893.893 0 0 0-.444.24c-.112.112-.168.272-.168.48 0 .168.048.304.144.408.096.104.24.192.432.264.192.072.428.152.708.24.488.144.904.288 1.248.432.344.136.608.316.792.54.192.216.288.516.288.9 0 .608-.228 1.084-.684 1.428-.448.336-1.048.504-1.8.504Zm3.602-2.556v-3.84h1.32V23.3c0 .56.1.984.3 1.272.208.28.508.42.9.42.248 0 .488-.052.72-.156.24-.104.456-.256.648-.456.2-.208.36-.456.48-.744v-3.912h1.32v4.788c0 .152.028.26.084.324.056.064.148.1.276.108V26c-.136.024-.248.04-.336.048a2.787 2.787 0 0 1-.252.012.93.93 0 0 1-.6-.192.77.77 0 0 1-.276-.516l-.024-.624c-.28.456-.644.804-1.092 1.044-.448.232-.94.348-1.476.348-.656 0-1.152-.216-1.488-.648-.336-.432-.504-1.068-.504-1.908ZM156.361 26h-1.32v-3.516c0-.584-.096-1.012-.288-1.284-.192-.272-.472-.408-.84-.408s-.712.14-1.032.42a2.19 2.19 0 0 0-.66 1.068V26h-1.32v-3.516c0-.584-.096-1.012-.288-1.284-.192-.272-.468-.408-.828-.408-.368 0-.712.136-1.032.408a2.269 2.269 0 0 0-.672 1.068V26h-1.32v-6.276h1.2v1.26c.248-.44.572-.776.972-1.008.408-.24.872-.36 1.392-.36.52 0 .928.136 1.224.408.304.272.492.612.564 1.02.272-.464.604-.816.996-1.056.4-.248.856-.372 1.368-.372.368 0 .676.068.924.204.248.136.44.324.576.564.136.232.232.504.288.816.064.304.096.628.096.972V26Zm4.365.12c-.488 0-.932-.084-1.332-.252a3.284 3.284 0 0 1-1.02-.708 3.378 3.378 0 0 1-.672-1.032 3.421 3.421 0 0 1-.228-1.248c0-.592.136-1.132.408-1.62a3.125 3.125 0 0 1 1.14-1.188c.488-.304 1.06-.456 1.716-.456.656 0 1.22.152 1.692.456.48.296.852.688 1.116 1.176a3.253 3.253 0 0 1 .36 2.052h-5.028c.024.368.124.692.3.972.184.272.416.488.696.648.28.152.58.228.9.228.352 0 .684-.088.996-.264.32-.176.536-.408.648-.696l1.128.324c-.136.304-.344.58-.624.828-.272.24-.596.432-.972.576a3.573 3.573 0 0 1-1.224.204Zm-1.884-3.696h3.792a1.882 1.882 0 0 0-.312-.948 1.83 1.83 0 0 0-.684-.648 1.765 1.765 0 0 0-.912-.24 1.859 1.859 0 0 0-1.584.888 1.953 1.953 0 0 0-.3.948Z"/>
  <defs>
    <linearGradient id="a" x1="13.832" x2="201.922" y1="11" y2="31.53" gradientUnits="userSpaceOnUse">
      <stop stop-color="#FF9C1A"/>
      <stop offset="1" stop-color="#E80505"/>
    </linearGradient>
  </defs>
</svg>
